<svg xmlns="http://www.w3.org/2000/svg" width="65" height="52" viewBox="0 0 65 52">
    <defs>
        <linearGradient id="prefix__a" x1=".007%" x2="99.993%" y1="50.036%" y2="50.036%">
            <stop offset="0%" stop-color="#FF090A"/>
            <stop offset="100%" stop-color="#FF7102"/>
        </linearGradient>
        <linearGradient id="prefix__b" x1="68.671%" x2="26.07%" y1="3.231%" y2="96.541%">
            <stop offset="21%" stop-color="#2A00B5"/>
            <stop offset="100%" stop-color="#00CFFF"/>
        </linearGradient>
        <linearGradient id="prefix__c" x1="50.006%" x2="50.006%" y1="99.996%" y2="0%">
            <stop offset="0%" stop-color="#FF7502"/>
            <stop offset="100%" stop-color="#FFF201"/>
        </linearGradient>
    </defs>
    <g fill="none" fill-rule="evenodd">
        <path fill="url(#prefix__a)" d="M44.935.578L30.27 7.92c-.08.038-.173.038-.254 0L15.33.578c-.122-.063-.27-.05-.38.033-.11.083-.162.222-.134.357l3.665 18.328 6.222-2.109c.16-.053.337.015.421.162L30.13 26h10.016c.17 0 .316-.12.351-.286L45.45.968c.028-.135-.024-.274-.134-.357-.11-.083-.258-.096-.38-.033z"/>
        <path fill="url(#prefix__b)" d="M25.2 35.142c-.128-.113-.16-.3-.076-.449l5.006-8.65-5.006-8.65c-.084-.148-.26-.216-.421-.163L.783 25.28c-.13.044-.223.158-.24.294-.018.136.045.27.16.344l13.692 9.045c.076.049.124.132.13.222l.978 16.382c.008.136.094.256.22.308.127.052.273.026.374-.065L30.13 39.467l-4.93-4.325z"/>
        <path fill="url(#prefix__c)" d="M59.46 25.28l-17.676-5.984-1.287 6.439c-.035.166-.181.285-.351.286H30.13l-5.006 8.65c-.083.15-.052.336.076.45L44.168 51.81c.1.093.245.118.372.066.126-.052.21-.173.217-.31l.984-16.381c.005-.09.053-.173.13-.222l13.691-9.045c.115-.078.174-.215.152-.351-.022-.137-.121-.248-.255-.287z"/>
    </g>
</svg>