<svg width="256" height="42" viewBox="0 0 256 42" fill="none" xmlns="http://www.w3.org/2000/svg">
<path d="M251.664 32.5993L244.244 22.7209H240.579V32.5993H236.958V10.2501H240.579V19.4132H244.2L251.664 10.2501H255.821L247.105 20.8436L256 32.5993H251.664Z" fill="#3E3E3F"/>
<path d="M211.117 10.2501H214.738V27.3249L226.493 10.2501H230.159V32.5993H226.538V15.5245L214.782 32.5993H211.117V10.2501Z" fill="#3E3E3F"/>
<path d="M187.88 10.2501H206.832V13.5577H199.144V32.5993H195.568V13.5577H187.88V10.2501Z" fill="#3E3E3F"/>
<path d="M181.736 32.5993L174.316 22.7209H170.651V32.5993H167.03V10.2501H170.651V19.4132H174.271L181.736 10.2501H185.893L177.177 20.8436L186.071 32.5993H181.736Z" fill="#3E3E3F"/>
<path d="M148.761 29.7832C153.32 29.7832 156.628 26.2967 156.628 21.4246C156.628 16.5525 153.32 13.066 148.761 13.066C144.202 13.066 140.894 16.5525 140.894 21.4246C140.894 26.2967 144.202 29.7832 148.761 29.7832ZM148.269 33.225C142.011 33.225 137.229 28.2188 137.229 21.4246C137.229 14.6305 142.011 9.62424 148.269 9.62424C151.89 9.62424 154.84 11.2781 156.628 14.0494V10.25H160.248V32.5992H156.628V28.7999C154.84 31.5712 151.89 33.225 148.269 33.225Z" fill="#3E3E3F"/>
<path d="M121.508 29.8279C126.112 29.8279 129.286 26.252 129.286 21.4246C129.286 16.5972 126.112 13.0213 121.508 13.0213C116.905 13.0213 113.731 16.5972 113.731 21.4246C113.731 26.252 116.905 29.8279 121.508 29.8279ZM122 33.225C118.424 33.225 115.519 31.5712 113.731 28.7999V41.5389H110.11V10.25H113.731V14.0494C115.519 11.2781 118.424 9.62424 122 9.62424C128.213 9.62424 132.951 14.6305 132.951 21.4246C132.951 28.2188 128.213 33.225 122 33.225Z" fill="#3E3E3F"/>
<path d="M103.26 32.5993V10.2501H89.1955L84.4863 17.7767V32.5993H88.1069V13.6024H99.6391V32.5993H103.26Z" fill="#3E3E3F"/>
<path d="M25.1589 19.2344H39.5965C39.4177 15.6138 36.557 12.9766 32.6236 12.9766C28.7348 12.9766 25.9635 15.4797 25.1589 19.2344ZM32.8471 33.225C25.9635 33.225 21.2702 28.3082 21.2702 21.514C21.2702 14.6305 26.0976 9.62424 32.713 9.62424C38.9707 9.62424 43.3065 14.0494 43.3065 20.4413C43.3065 21.1117 43.2618 21.7822 43.1724 22.4527H24.9801C25.3824 26.9225 28.4219 29.8279 32.8918 29.8279C35.7078 29.8279 37.898 28.6658 39.5071 26.1626L42.3678 28.3082C40.1329 31.5265 36.9146 33.225 32.8471 33.225Z" fill="#3E3E3F"/>
<path d="M3.39708 22.4974V29.4704H10.37C12.4262 29.4704 14.0353 28.2188 14.0353 25.9839C14.0353 23.7937 12.4262 22.4974 10.37 22.4974H3.39708ZM3.39708 13.379V19.4579H10.0124C11.9792 19.4579 13.186 18.2064 13.186 16.4184C13.186 14.6752 11.9792 13.379 10.0124 13.379H3.39708ZM10.4594 32.5993H0V10.2501H10.1018C13.9906 10.2501 16.6278 12.6191 16.6278 16.1056C16.6278 18.3405 15.5103 19.9496 13.6777 20.7542C16.0467 21.5141 17.5218 23.5255 17.5218 26.3415C17.5218 30.1409 14.7505 32.5993 10.4594 32.5993Z" fill="#3E3E3F"/>
<path d="M86.3584 10.0488H81.7715L67.476 32.5993H72.107L86.3584 10.0488Z" fill="#7927E0"/>
<path d="M71.0302 21.8036C71.0302 15.1431 66.6932 10.4921 60.3912 10.4921C56.5455 10.4921 53.5455 12.2357 51.8099 15.4089C52.0757 8.16052 54.8502 5.17257 61.7321 4.5927L69.1094 3.9484L68.8839 0.461121L61.418 1.12958C52.12 1.97926 48.3226 6.85178 48.3226 17.8492V19.2787C48.3226 27.9043 52.7038 33.2238 59.8556 33.2238C61.5411 33.241 63.2116 32.9064 64.7603 32.2413L71.0181 22.3714C71.0262 22.1781 71.0302 21.9808 71.0302 21.8036ZM59.8556 29.8574C55.426 29.8574 52.3012 26.5473 52.3012 21.8036C52.3012 17.0599 55.43 13.7498 59.8556 13.7498C64.2811 13.7498 67.41 17.0559 67.41 21.8036C67.41 26.5513 64.2811 29.8574 59.8556 29.8574Z" fill="#3E3E3F"/>
</svg>

